# xmcd CD database file
#
# Track frame offsets:
#	150
#	16197
#	31175
#	46587
#	61170
#	76452
#	90552
#	106285
#	122650
#	137070
#	152107
#	166080
#	180990
#	195365
#	209437
#	224145
#	237655
#	252102
#	266022
#
# Disc length: 3727 seconds
#
# Revision: 3
# Processed by: cddbd v1.5.2PL0 Copyright (c) Steve Scherf et al.
# Submitted via: CDex 1.99.1
#
DISCID=f90e8d13
DTITLE=Bessie Smith - Bessie Smith Empress of the Blues_  The Complete Recordings [Volume 2 Disc 1]
DYEAR=1900
DGENRE=Blues
TTITLE0=Frankie Blues
TTITLE1=Moonshine Blues
TTITLE2=Lou'siana Low-Down Blues
TTITLE3=Mountain Top Blues
TTITLE4=Work House Blues
TTITLE5=House Rent Blues
TTITLE6=Salt Water Blues
TTITLE7=Rainy Weather Blues
TTITLE8=Weeping Willow Blues
TTITLE9=The Bye Bye Blues
TTITLE10=Sing Sing Prison Blues
TTITLE11=Follow the Deal on Down
TTITLE12=Sinful Blues
TTITLE13=Woman's Trouble Blues
TTITLE14=Love Me Daddy Blues
TTITLE15=Dying Gambler's Blues
TTITLE16=The St. Louis Blues
TTITLE17=Reckless Blues
TTITLE18=Sobbin' Hearted Blues
EXTD=
EXTT0=
EXTT1=
EXTT2=
EXTT3=
EXTT4=
EXTT5=
EXTT6=
EXTT7=
EXTT8=
EXTT9=
EXTT10=
EXTT11=
EXTT12=
EXTT13=
EXTT14=
EXTT15=
EXTT16=
EXTT17=
EXTT18=
PLAYORDER=
